<svg id="apartment" xmlns="http://www.w3.org/2000/svg" width="102.132" height="89.269" viewBox="0 0 102.132 89.269">
  <path id="Path_6299" data-name="Path 6299" d="M71.507,208.682h7.961a1.948,1.948,0,0,0,1.949-1.946v-7.6a1.948,1.948,0,0,0-1.949-1.946H71.507a1.947,1.947,0,0,0-1.948,1.946v7.6A1.947,1.947,0,0,0,71.507,208.682Zm1.949-7.6H77.52v3.708H73.455Zm0,0" transform="translate(-55.683 -157.854)" fill="#fd9800"/>
  <path id="Path_6300" data-name="Path 6300" d="M71.507,285.638h7.961a1.948,1.948,0,0,0,1.949-1.946v-7.6a1.948,1.948,0,0,0-1.949-1.946H71.507a1.947,1.947,0,0,0-1.948,1.946v7.6A1.947,1.947,0,0,0,71.507,285.638Zm1.949-7.6H77.52v3.708H73.455Zm0,0" transform="translate(-55.683 -219.459)" fill="#fd9800"/>
  <path id="Path_6301" data-name="Path 6301" d="M215.827,116.494H224.2a1.948,1.948,0,0,0,1.948-1.946v-7.992a1.947,1.947,0,0,0-1.948-1.946h-8.369a1.947,1.947,0,0,0-1.948,1.946v7.992A1.947,1.947,0,0,0,215.827,116.494Zm1.948-7.992h4.473v4.1h-4.473Zm0,0" transform="translate(-171.216 -83.742)" fill="#fd9800"/>
  <path id="Path_6302" data-name="Path 6302" d="M302.67,116.494h8.375a1.947,1.947,0,0,0,1.948-1.946v-7.992a1.947,1.947,0,0,0-1.948-1.946H302.67a1.947,1.947,0,0,0-1.948,1.946v7.992A1.947,1.947,0,0,0,302.67,116.494Zm1.948-7.992H309.1v4.1h-4.478Zm0,0" transform="translate(-240.736 -83.742)" fill="#fd9800"/>
  <path id="Path_6303" data-name="Path 6303" d="M225.243,189.223h-8.369a1.948,1.948,0,0,0-1.949,1.946v7.993a1.948,1.948,0,0,0,1.949,1.946h8.369a1.948,1.948,0,0,0,1.949-1.946v-7.993A1.948,1.948,0,0,0,225.243,189.223Zm-1.948,7.993h-4.473v-4.1h4.473Zm0,0" transform="translate(-172.053 -151.477)" fill="#0c2869"/>
  <path id="Path_6304" data-name="Path 6304" d="M312.091,189.223h-8.369a1.947,1.947,0,0,0-1.948,1.946v7.993a1.947,1.947,0,0,0,1.948,1.946h8.369a1.947,1.947,0,0,0,1.948-1.946v-7.993A1.947,1.947,0,0,0,312.091,189.223Zm-1.949,7.993h-4.473v-4.1h4.473Zm0,0" transform="translate(-241.577 -151.477)" fill="#fd9800"/>
  <path id="Path_6305" data-name="Path 6305" d="M100.923,55.508A41.08,41.08,0,0,0,94.5,42.62c-1.7-2.217-3.807-4.484-6.478-4.484h0c-2.263,0-4.089,1.576-5.707,3.5V11.349h.578A5.675,5.675,0,0,0,82.895,0H31.708a5.675,5.675,0,0,0,0,11.351h.578v8.711H5.839A5.834,5.834,0,0,0,4.293,31.522V85.375H3.422a1.946,1.946,0,1,0,0,3.893H90.2a1.945,1.945,0,0,0,.106-3.887V76c6.28-.535,9.151-3.65,10.458-6.3,2.229-4.52,1.315-10.213.154-14.193ZM5.839,23.954H32.286v3.884H5.839a1.942,1.942,0,0,1,0-3.884ZM32.286,85.375H8.189V31.731h24.1Zm22.454,0H47.879v-20.4H54.74Zm10.758,0H58.637v-20.4H65.5Zm12.921,0H69.4V63.029a1.948,1.948,0,0,0-1.949-1.946H45.931a1.948,1.948,0,0,0-1.949,1.946V85.375h-7.8V11.35H49.539a1.946,1.946,0,1,0,0-3.893H31.708a1.8,1.8,0,0,1-1.776-1.783,1.781,1.781,0,0,1,1.776-1.782H82.895A1.781,1.781,0,0,1,84.67,5.674,1.8,1.8,0,0,1,82.9,7.457L65.059,7.452h0a1.946,1.946,0,1,0,0,3.893l13.363,0V47.512a35.779,35.779,0,0,0-4.127,13.606c-.356,5.225,1.068,9.311,4.127,11.893Zm7.994,0h-4.1V74.84A9.706,9.706,0,0,0,86.414,76ZM97.274,67.981c-1.17,2.372-3.511,3.748-6.964,4.11V63.935l2.881-2.74a1.947,1.947,0,1,0-2.686-2.82l-.2.185V52.339a1.948,1.948,0,0,0-3.9,0v3.526l-.189-.18A1.947,1.947,0,0,0,83.537,58.5l2.878,2.74v2.544l-1.572-1.119a1.947,1.947,0,1,0-2.26,3.171l3.833,2.727v3.524c-3.575-.375-6.012-1.826-7.25-4.336-2.4-4.857-.359-12.571,2.658-18.341l.047-.09a29.834,29.834,0,0,1,2.67-4.232c1.949-2.532,2.971-3.063,3.485-3.063h0c.507,0,1.507.514,3.39,2.963,4.393,5.711,8.874,16.877,5.86,22.989Zm0,0" transform="translate(-0.001 0)" fill="#0c2869"/>
  <path id="Path_6306" data-name="Path 6306" d="M279.475,37.387h-.039a1.946,1.946,0,1,0,0,3.893h.039a1.946,1.946,0,1,0,0-3.893Zm0,0" transform="translate(-222.136 -29.929)" fill="#fd9800"/>
</svg>
