<svg xmlns="http://www.w3.org/2000/svg" width="67.393" height="67.361" viewBox="0 0 67.393 67.361">
  <g id="automation" transform="translate(-1.991 -19)">
    <path id="Path_6389" data-name="Path 6389" d="M30,56h4.491v2.245H30Z" transform="translate(3.436 22.625)" fill="#fd9800"/>
    <path id="Path_6390" data-name="Path 6390" d="M30,27h4.491v2.245H30Z" transform="translate(3.436 19.067)" fill="#fd9800"/>
    <path id="Path_6391" data-name="Path 6391" d="M65.995,18.84H64.872V16.6H62.626V18.84H59.483A30.885,30.885,0,0,0,49.154,9.747V5.368A3.308,3.308,0,0,0,45.786,2H25.578A3.308,3.308,0,0,0,22.21,5.368V9.747A29.376,29.376,0,0,0,10.421,21.086,9,9,0,0,0,6.6,37.926a30.643,30.643,0,0,0,1.684,7.859,6.672,6.672,0,0,0-1.8,9.318c.225.337.561.674.786,1.01l4.828,4.828,3.7-3.7a28.53,28.53,0,0,0,6.4,4.491v4.266a3.308,3.308,0,0,0,3.368,3.368H45.786a3.308,3.308,0,0,0,3.368-3.368V61.615a25.09,25.09,0,0,0,4.6-3.031A8.979,8.979,0,0,0,67,46.459,10.147,10.147,0,0,0,63.637,44.1a32.018,32.018,0,0,0,1.235-7.3h1.123a3.308,3.308,0,0,0,3.368-3.368V22.208a3.308,3.308,0,0,0-3.368-3.368Zm1.123,3.368v1.123H53.645V22.208a1.061,1.061,0,0,1,1.123-1.123H65.995A1.061,1.061,0,0,1,67.117,22.208ZM24.455,5.368a1.061,1.061,0,0,1,1.123-1.123H45.786a1.061,1.061,0,0,1,1.123,1.123V16.6a1.061,1.061,0,0,1-1.123,1.123H38.6l-2.919,2.919-2.919-2.919H25.578A1.061,1.061,0,0,1,24.455,16.6ZM4.246,30.067A6.736,6.736,0,1,1,10.983,36.8,6.756,6.756,0,0,1,4.246,30.067Zm7.859,27.618L8.962,54.542a4.491,4.491,0,0,1,3.144-7.634h.112A4.384,4.384,0,0,1,16.6,51.286a4.248,4.248,0,0,1-1.347,3.144Zm34.8.449H24.455V28.945a1.061,1.061,0,0,1,1.123-1.123H45.786a1.061,1.061,0,0,1,1.123,1.123Zm-1.123,8.982H25.578a1.061,1.061,0,0,1-1.123-1.123V60.38H46.909v5.613A1.061,1.061,0,0,1,45.786,67.116Zm21.331-14.6a6.736,6.736,0,1,1-6.736-6.736A6.756,6.756,0,0,1,67.117,52.521Zm-5.726-8.869A8.98,8.98,0,0,0,51.4,51.511a8.618,8.618,0,0,0,1.01,5.277,33.417,33.417,0,0,1-3.256,2.245V28.945a3.308,3.308,0,0,0-3.368-3.368H25.578a3.308,3.308,0,0,0-3.368,3.368V59.033a29.935,29.935,0,0,1-4.828-3.593,6.689,6.689,0,0,0-5.277-10.778h-.112a8.666,8.666,0,0,0-1.684.225,28.089,28.089,0,0,1-1.46-6.063A8.987,8.987,0,0,0,12.891,21.31h-.112A27.442,27.442,0,0,1,22.1,12.329V16.6a3.308,3.308,0,0,0,3.368,3.368h6.287L35.57,23.78l3.817-3.817h6.4A3.308,3.308,0,0,0,49.154,16.6V12.329a26.279,26.279,0,0,1,7.522,6.512H54.768A3.308,3.308,0,0,0,51.4,22.208V33.435A3.308,3.308,0,0,0,54.768,36.8h7.859a28.31,28.31,0,0,1-1.235,6.848Zm4.6-9.094H54.768a1.061,1.061,0,0,1-1.123-1.123V25.577H67.117v7.859A1.061,1.061,0,0,1,65.995,34.558Z" transform="translate(0 17)" fill="#0c2869"/>
    <path id="Path_6392" data-name="Path 6392" d="M14.164,28.838l-2.919-1.909V23H9v5.052l3.817,2.582Z" transform="translate(0.86 18.577)" fill="#fd9800"/>
    <path id="Path_6393" data-name="Path 6393" d="M51,25h2.245v4.491H51Z" transform="translate(6.013 18.822)" fill="#fd9800"/>
    <path id="Path_6394" data-name="Path 6394" d="M55,25h2.245v4.491H55Z" transform="translate(6.504 18.822)" fill="#fd9800"/>
    <path id="Path_6395" data-name="Path 6395" d="M7,56h8.982v2.245H7Z" transform="translate(0.615 6.625)" fill="#0c2869"/>
    <path id="Path_6396" data-name="Path 6396" d="M28,7H41.472V9.245H28Z" transform="translate(3.191 16.613)" fill="#fd9800"/>
    <path id="Path_6397" data-name="Path 6397" d="M28,12H41.472v2.245H28Z" transform="translate(3.191 17.227)" fill="#fd9800"/>
    <path id="Path_6398" data-name="Path 6398" d="M53,43h2.245v4.491H53Z" transform="translate(6.258 21.03)" fill="#fd9800"/>
    <path id="Path_6399" data-name="Path 6399" d="M53,49h2.245v2.245H53Z" transform="translate(6.258 21.767)" fill="#fd9800"/>
    <path id="Path_6400" data-name="Path 6400" d="M24,7h2.245V9.245H24Z" transform="translate(2.7 16.613)" fill="#fd9800"/>
    <path id="Path_6401" data-name="Path 6401" d="M24,12h2.245v2.245H24Z" transform="translate(2.7 17.227)" fill="#fd9800"/>
  </g>
</svg>
