<svg xmlns="http://www.w3.org/2000/svg" width="57.757" height="57.758" viewBox="0 0 57.757 57.758">
  <g id="Group_87711" data-name="Group 87711" transform="translate(177.282 -3804.286)">
    <path id="Path_6402" data-name="Path 6402" d="M65.3,24.458a28.691,28.691,0,0,1,8.458,20.42,29.245,29.245,0,0,1-.275,3.985.963.963,0,0,1-.954.831.949.949,0,0,1-.132-.009l-3.814-.531a.963.963,0,0,1-.821-1.085,23.393,23.393,0,0,0,.22-3.19A23.1,23.1,0,0,0,25.588,32.163l1.59.805a.963.963,0,0,1,.009,1.713l-6.753,3.511a.963.963,0,0,1-1.391-.682l-1.391-7.635a.963.963,0,0,1,1.382-1.031l1.374.7a29.055,29.055,0,0,1,3.031-4.007l1.429,1.29A27.1,27.1,0,0,0,21.6,31.287a.963.963,0,0,1-1.266.373l-.44-.223.81,4.445,3.932-2.044-.858-.435a.963.963,0,0,1-.391-1.352A25.029,25.029,0,0,1,69.907,44.879c0,.829-.042,1.665-.125,2.5l1.908.266a26.953,26.953,0,0,0-45.276-22.4l-1.319-1.4a28.877,28.877,0,0,1,40.2.616ZM22,41.689a23.411,23.411,0,0,0-.22,3.19A23.1,23.1,0,0,0,64.209,57.534l-1.377-.514a.963.963,0,0,1-.2-1.7l6.311-4.224a.963.963,0,0,1,1.456.52l2.26,7.424A.963.963,0,0,1,71.4,60.219l-1.673-.625a29,29,0,0,1-3.939,5.2L64.4,63.465A27.063,27.063,0,0,0,68.46,57.94a.963.963,0,0,1,1.178-.435l.614.229-1.315-4.32-3.672,2.458.718.268a.963.963,0,0,1,.493,1.389A25.03,25.03,0,0,1,19.85,44.879c0-.829.042-1.665.125-2.5l-1.908-.266A26.952,26.952,0,0,0,63.026,64.806l1.3,1.423A28.878,28.878,0,0,1,16,44.879a29.244,29.244,0,0,1,.275-3.985.963.963,0,0,1,1.086-.822l3.814.531A.963.963,0,0,1,22,41.689Z" transform="translate(-193.282 3788.287)" fill="#0c2869"/>
    <g id="Outline" transform="translate(-162.843 3817.763)">
      <path id="Path_6402-2" data-name="Path 6402" d="M31.491,38.159V60.3a.963.963,0,0,0,.963.963H59.407a.963.963,0,0,0,.963-.963V31.421a.963.963,0,0,0-.963-.963H32.454a.963.963,0,0,0-.963.963v4.813h1.925v-3.85h7.7V42.972h-7.7V38.159Zm19.252-5.776h7.7V42.972h-7.7Zm-7.7,0h5.776V42.972H43.042Zm0,12.514h5.776v5.181l-.532-.266a.963.963,0,0,0-.861,0l-1.495.747-1.495-.747a.963.963,0,0,0-.861,0l-.532.266Zm-1.925,0v6.738a.963.963,0,0,0,1.393.861L44,51.749,45.5,52.5a.963.963,0,0,0,.861,0l1.495-.747,1.495.747a.963.963,0,0,0,1.393-.861V44.9h7.7V59.337H33.416V44.9Zm15.4,12.514H54.594V55.486h1.925Zm-3.85,0H50.743V55.486h1.925Zm-3.85,0H46.893V55.486h1.925Z" transform="translate(-31.491 -30.458)" fill="#fd9800"/>
    </g>
  </g>
</svg>
