<svg id="efficiency_1_" data-name="efficiency (1)" xmlns="http://www.w3.org/2000/svg" width="52.748" height="52.748" viewBox="0 0 52.748 52.748">
  <path id="Path_6383" data-name="Path 6383" d="M52.748,31.266V21.482l-7.223-1.445a20.076,20.076,0,0,0-1.13-2.724l4.086-6.13L41.564,4.266l-6.13,4.086a20.072,20.072,0,0,0-2.724-1.13L31.266,0H21.482L20.037,7.223a20.09,20.09,0,0,0-2.724,1.13l-6.13-4.086L4.266,11.184l4.086,6.13a20.1,20.1,0,0,0-1.13,2.724L0,21.482v9.784L7.223,32.71a20.09,20.09,0,0,0,1.13,2.724l-4.086,6.13,6.918,6.918,6.13-4.086a20.089,20.089,0,0,0,2.724,1.13l1.444,7.222h9.784l1.445-7.223a20.1,20.1,0,0,0,2.724-1.13l6.13,4.086,6.918-6.918L44.4,35.434a20.085,20.085,0,0,0,1.13-2.724Zm-8.258,9.9-3.321,3.321L35.59,40.77l-5.553,2.3-1.315,6.573h-4.7l-1.315-6.573-5.553-2.3-5.579,3.719L8.258,41.169l3.719-5.579-2.3-5.553L3.1,28.722v-4.7l6.573-1.315,2.3-5.553L8.258,11.579l3.321-3.321,5.579,3.719,5.553-2.3L24.026,3.1h4.7l1.315,6.573,5.553,2.3,5.579-3.719,3.321,3.321L40.77,17.158l2.3,5.553,6.573,1.315v4.7l-6.573,1.315-2.3,5.553Z" fill="#0c2869"/>
  <path id="Path_6384" data-name="Path 6384" d="M171.025,135H160.039l-4.424,17.065h8.128l-.481,9.308h5.022l9.216-18.617h-8.881Zm1.476,10.86-5.952,12.024.461-8.921h-7.386l2.815-10.86h4.373l-2.407,7.757Z" transform="translate(-139.52 -121.037)" fill="#fd9800"/>
</svg>
