<svg xmlns="http://www.w3.org/2000/svg" width="55.492" height="50.646" viewBox="0 0 55.492 50.646">
  <g id="evolution" transform="translate(0 -22.353)">
    <path id="Path_6424" data-name="Path 6424" d="M52.026,220.745V191.706H42.271v29.037H39.02V198.209H29.265v22.53H26.013V204.712H16.258v16.024H13.007v-9.52H3.252v9.517H0v3.251L55.491,224v-3.251Zm-6.5-25.788h3.252v25.787H45.523Zm-13.006,6.5h3.252v19.281H32.516Zm-13.007,6.5h3.252v12.774H19.51ZM6.5,214.467H9.755v6.267H6.5Z" transform="translate(0 -150.998)" fill="#0c2869"/>
    <path id="Path_6425" data-name="Path 6425" d="M66.092,50.169,102.25,28.983l-.653,2.474,3.144.83,2.076-7.859-7.859-2.076-.83,3.144,2.511.663-36.189,21.2Z" transform="translate(-57.463)" fill="#fd9800"/>
  </g>
</svg>
