<svg xmlns="http://www.w3.org/2000/svg" width="28" height="28" viewBox="0 0 28 28">
  <g id="Group_3767" data-name="Group 3767" transform="translate(0 0.171)">
    <g id="Ellipse_17" data-name="Ellipse 17" transform="translate(0 -0.171)" fill="none" stroke="#fff" stroke-width="1">
      <circle cx="14" cy="14" r="14" stroke="none"/>
      <circle cx="14" cy="14" r="13.5" fill="none"/>
    </g>
    <path id="Facebook-2" d="M11.364,2.469h1.852a.309.309,0,0,0,.309-.309V.309A.309.309,0,0,0,13.216,0H11.364a3.4,3.4,0,0,0-3.4,3.4V5.556H5.809a.309.309,0,0,0-.309.309V7.716a.309.309,0,0,0,.309.309H7.969v6.482a.309.309,0,0,0,.309.309H10.13a.309.309,0,0,0,.309-.309V8.025H12.6a.31.31,0,0,0,.293-.211l.617-1.852a.308.308,0,0,0-.293-.406H10.438V3.4A.927.927,0,0,1,11.364,2.469Z" transform="translate(4.704 6.493)" fill="#fff"/>
  </g>
</svg>
