<svg xmlns="http://www.w3.org/2000/svg" width="28" height="28" viewBox="0 0 28 28">
  <g id="Group_3768" data-name="Group 3768" transform="translate(0.269 0.171)">
    <g id="Group_45" data-name="Group 45" transform="translate(0 0)">
      <g id="Ellipse_16" data-name="Ellipse 16" transform="translate(-0.269 -0.171)" fill="none" stroke="#fff" stroke-width="1">
        <circle cx="14" cy="14" r="14" stroke="none"/>
        <circle cx="14" cy="14" r="13.5" fill="none"/>
      </g>
    </g>
    <path id="instagram" d="M6.377,34.967a3.307,3.307,0,1,0,3.307,3.307A3.3,3.3,0,0,0,6.377,34.967Zm0,5.457a2.15,2.15,0,1,1,2.15-2.15A2.154,2.154,0,0,1,6.377,40.424Zm4.214-5.592a.771.771,0,1,1-.771-.771A.77.77,0,0,1,10.591,34.832Zm2.19.783a3.817,3.817,0,0,0-1.042-2.7,3.842,3.842,0,0,0-2.7-1.042c-1.065-.06-4.257-.06-5.322,0a3.837,3.837,0,0,0-2.7,1.039,3.83,3.83,0,0,0-1.042,2.7c-.06,1.065-.06,4.257,0,5.322a3.817,3.817,0,0,0,1.042,2.7,3.847,3.847,0,0,0,2.7,1.042c1.065.06,4.257.06,5.322,0a3.817,3.817,0,0,0,2.7-1.042,3.842,3.842,0,0,0,1.042-2.7C12.842,39.869,12.842,36.68,12.781,35.615Zm-1.376,6.462A2.177,2.177,0,0,1,10.179,43.3a14.215,14.215,0,0,1-3.8.259,14.326,14.326,0,0,1-3.8-.259,2.177,2.177,0,0,1-1.226-1.226,14.215,14.215,0,0,1-.259-3.8,14.326,14.326,0,0,1,.259-3.8,2.177,2.177,0,0,1,1.226-1.226,14.215,14.215,0,0,1,3.8-.259,14.326,14.326,0,0,1,3.8.259,2.177,2.177,0,0,1,1.226,1.226,14.215,14.215,0,0,1,.259,3.8A14.207,14.207,0,0,1,11.405,42.076Z" transform="translate(7.496 -24.404)" fill="#fff"/>
  </g>
</svg>
