<svg xmlns="http://www.w3.org/2000/svg" xmlns:xlink="http://www.w3.org/1999/xlink" width="100.632" height="67" viewBox="0 0 100.632 67">
  <defs>
    <clipPath id="clip-path">
      <path id="Path_5" data-name="Path 5" d="M45.193-109.572a76.085,76.085,0,0,0-27.421,9.511c-4.8,2.92-11.529,8.338-10.7,8.613.357.119,3.268-1.049,6.469-2.6a98.529,98.529,0,0,1,23.733-7.8c5.473-1.1,8.715-1.342,17.671-1.322,12.457.027,18.711,1.03,30.624,4.913,3.773,1.229,7.039,2.056,7.258,1.837,1.2-1.2-5.748-5.64-13.816-8.827-9.655-3.815-24.069-5.661-33.815-4.334" transform="translate(-7 110)" fill="#fd9800" clip-rule="evenodd"/>
    </clipPath>
  </defs>
  <g id="Group_87630" data-name="Group 87630" transform="translate(-5.156 110)">
    <g id="Group_87568" data-name="Group 87568" transform="translate(5.156 -87.955)">
      <path id="Path_6" data-name="Path 6" d="M18.241-27.867a11.787,11.787,0,0,1-6.463-1.841,14.5,14.5,0,0,1-5.1-4.844A11.786,11.786,0,0,1,4.77-40.979v-15.5a2.294,2.294,0,0,1,1.26-1.809,5.174,5.174,0,0,1,2.939-.84,5.021,5.021,0,0,1,2.907.84A2.3,2.3,0,0,1,13.1-56.481v15.5a5.305,5.305,0,0,0,.775,2.777,6.829,6.829,0,0,0,2.067,2.164,4.972,4.972,0,0,0,2.842.872,5.062,5.062,0,0,0,2.874-.84A6.43,6.43,0,0,0,23.7-38.2a5.534,5.534,0,0,0,.775-2.777V-56.545a2.18,2.18,0,0,1,1.26-1.809,5.372,5.372,0,0,1,2.874-.775,5.381,5.381,0,0,1,3.036.775A2.191,2.191,0,0,1,32.8-56.545v15.566A11.893,11.893,0,0,1,30.9-34.487a14.228,14.228,0,0,1-5.1,4.812A16.22,16.22,0,0,1,18.241-27.867Zm24.831-.581a4.95,4.95,0,0,1-2.971-.84A2.308,2.308,0,0,1,38.938-31.1V-56.545A2.131,2.131,0,0,1,40.1-58.418a5.621,5.621,0,0,1,2.971-.71,4.611,4.611,0,0,1,2.616.71,2.162,2.162,0,0,1,1.066,1.873v1.938A9.468,9.468,0,0,1,49.951-58a9.467,9.467,0,0,1,5.458-1.518,9.427,9.427,0,0,1,5.555,1.776A12.822,12.822,0,0,1,65-52.993,14.268,14.268,0,0,1,66.519-46.4V-31.1a2.133,2.133,0,0,1-1.292,1.97,6.157,6.157,0,0,1-2.907.678,6.145,6.145,0,0,1-2.777-.678,2.13,2.13,0,0,1-1.356-1.97V-46.4a5.48,5.48,0,0,0-.743-2.777,6.5,6.5,0,0,0-2.035-2.164,4.972,4.972,0,0,0-2.842-.872,4.969,4.969,0,0,0-2.519.711,5.577,5.577,0,0,0-2,2,5.917,5.917,0,0,0-.775,3.1V-31.1a2.3,2.3,0,0,1-1.227,1.809A5.134,5.134,0,0,1,43.072-28.448Zm33.781,0a4.95,4.95,0,0,1-2.971-.84A2.308,2.308,0,0,1,72.719-31.1V-56.545a2.131,2.131,0,0,1,1.163-1.873,5.621,5.621,0,0,1,2.971-.71,5.837,5.837,0,0,1,2.971.71,2.12,2.12,0,0,1,1.227,1.873V-31.1a2.3,2.3,0,0,1-1.227,1.809A5.134,5.134,0,0,1,76.853-28.448Zm22.413,0q-5.813,0-8.881-2.519t-3.068-7.945V-70.238a2.117,2.117,0,0,1,1.356-1.873,5.92,5.92,0,0,1,2.777-.71,5.984,5.984,0,0,1,2.874.71,2.116,2.116,0,0,1,1.324,1.873v11.11h7.622a1.737,1.737,0,0,1,1.582.937,4.073,4.073,0,0,1,.549,2.1,4.074,4.074,0,0,1-.549,2.1,1.737,1.737,0,0,1-1.582.937H95.649v14.145a3.574,3.574,0,0,0,.807,2.648,4.024,4.024,0,0,0,2.81.775h2.519a3.215,3.215,0,0,1,2.68,1.1,3.763,3.763,0,0,1,.872,2.39,3.849,3.849,0,0,1-.872,2.454,3.215,3.215,0,0,1-2.68,1.1Z" transform="translate(-4.77 72.822)" fill="#fff"/>
      <g id="Path_6200" data-name="Path 6200" transform="translate(67.168 9.641)" fill="#fd9800">
        <path d="M 4.874767303466797 10.74953746795654 C 1.635407328605652 10.74953746795654 -1.00000274181366 8.114127159118652 -1.00000274181366 4.874767303466797 C -1.00000274181366 1.635407328605652 1.635407328605652 -1.00000274181366 4.874767303466797 -1.00000274181366 C 8.114127159118652 -1.00000274181366 10.74953746795654 1.635407328605652 10.74953746795654 4.874767303466797 C 10.74953746795654 8.114127159118652 8.114127159118652 10.74953746795654 4.874767303466797 10.74953746795654 Z" stroke="none"/>
        <path d="M 4.874767303466797 -2.86102294921875e-06 C 2.182507514953613 -2.86102294921875e-06 -2.86102294921875e-06 2.182507514953613 -2.86102294921875e-06 4.874767303466797 C -2.86102294921875e-06 7.56702709197998 2.182507514953613 9.749537467956543 4.874767303466797 9.749537467956543 C 7.56702709197998 9.749537467956543 9.749537467956543 7.56702709197998 9.749537467956543 4.874767303466797 C 9.749537467956543 2.182507514953613 7.56702709197998 -2.86102294921875e-06 4.874767303466797 -2.86102294921875e-06 M 4.874767303466797 -2.000002861022949 C 8.66552734375 -2.000002861022949 11.74953746795654 1.084007263183594 11.74953746795654 4.874767303466797 C 11.74953746795654 8.66552734375 8.66552734375 11.74953746795654 4.874767303466797 11.74953746795654 C 1.084007263183594 11.74953746795654 -2.000002861022949 8.66552734375 -2.000002861022949 4.874767303466797 C -2.000002861022949 1.084007263183594 1.084007263183594 -2.000002861022949 4.874767303466797 -2.000002861022949 Z" stroke="none" fill="#fff"/>
      </g>
    </g>
    <g id="Group_87569" data-name="Group 87569" transform="translate(6.28 -110)" clip-path="url(#clip-path)">
      <path id="Path_4" data-name="Path 4" d="M2-115H94.053v24.654H2Z" transform="translate(-5.047 111.953)" fill="#fd9800"/>
    </g>
  </g>
</svg>
