<svg xmlns="http://www.w3.org/2000/svg" width="27" height="28" viewBox="0 0 27 28">
  <g id="Group_48" data-name="Group 48" transform="translate(-0.402 0.171)">
    <path id="twitter_1_" data-name="twitter (1)" d="M15.147,49.457a6.474,6.474,0,0,1-1.789.49,3.088,3.088,0,0,0,1.366-1.716,6.206,6.206,0,0,1-1.969.752,3.105,3.105,0,0,0-5.372,2.123,3.2,3.2,0,0,0,.072.708,8.79,8.79,0,0,1-6.4-3.248,3.106,3.106,0,0,0,.954,4.15,3.067,3.067,0,0,1-1.4-.382v.034a3.12,3.12,0,0,0,2.488,3.051,3.1,3.1,0,0,1-.814.1,2.746,2.746,0,0,1-.588-.053,3.135,3.135,0,0,0,2.9,2.163,6.24,6.24,0,0,1-3.85,1.324A5.816,5.816,0,0,1,0,58.914a8.742,8.742,0,0,0,4.764,1.394A8.777,8.777,0,0,0,13.6,51.471c0-.137,0-.27-.011-.4A6.2,6.2,0,0,0,15.147,49.457Z" transform="translate(6.493 -40.579)" fill="#fff"/>
    <g id="Ellipse_16" data-name="Ellipse 16" transform="translate(0.402 -0.171)" fill="none" stroke="#fff" stroke-width="1">
      <ellipse cx="13.5" cy="14" rx="13.5" ry="14" stroke="none"/>
      <ellipse cx="13.5" cy="14" rx="13" ry="13.5" fill="none"/>
    </g>
  </g>
</svg>
