<svg id="hotel" xmlns="http://www.w3.org/2000/svg" width="110.797" height="84.944" viewBox="0 0 110.797 84.944">
  <path id="Path_6307" data-name="Path 6307" d="M108.95,137.252V92.933A1.847,1.847,0,0,0,110.7,90.5l-5.54-16.62a1.846,1.846,0,0,0-1.752-1.263H79.4V66.85h0a1.847,1.847,0,0,0,.527-3.617L55.926,56.077a1.852,1.852,0,0,0-1.055,0L30.865,63.233a1.846,1.846,0,0,0,.528,3.615V72.62H7.386a1.846,1.846,0,0,0-1.752,1.263L.095,90.5a1.847,1.847,0,0,0,1.752,2.431v44.319a1.847,1.847,0,0,0,0,3.693h107.1a1.847,1.847,0,0,0,0-3.693Zm-3.693,0H79.4V92.933h25.853Zm-70.171-11.08h7.386v11.08H35.086Zm11.08,0H64.632v11.08H46.165Zm22.159,0h7.386v11.08H68.325Zm33.755-49.859,4.309,12.926H79.4V76.313ZM55.4,59.774l20.313,6.055v56.65H35.086V65.829ZM8.717,76.313H31.392V89.24H4.409ZM5.54,92.933H31.392v44.319H5.54Z" transform="translate(0 -56.001)" fill="#0c2869"/>
  <path id="Path_6308" data-name="Path 6308" d="M105.847,160A1.847,1.847,0,0,0,104,161.847v3.693a1.847,1.847,0,1,0,3.693,0v-3.693A1.847,1.847,0,0,0,105.847,160Z" transform="translate(-79.994 -135.994)" fill="#0c2869"/>
  <path id="Path_6309" data-name="Path 6309" d="M73.847,160A1.847,1.847,0,0,0,72,161.847v3.693a1.847,1.847,0,1,0,3.693,0v-3.693A1.847,1.847,0,0,0,73.847,160Z" transform="translate(-55.38 -135.994)" fill="#fd9800"/>
  <path id="Path_6310" data-name="Path 6310" d="M41.847,160A1.847,1.847,0,0,0,40,161.847v3.693a1.847,1.847,0,1,0,3.693,0v-3.693A1.847,1.847,0,0,0,41.847,160Z" transform="translate(-30.767 -135.994)" fill="#0c2869"/>
  <path id="Path_6311" data-name="Path 6311" d="M425.847,167.386a1.847,1.847,0,0,0,1.847-1.847v-3.693a1.847,1.847,0,1,0-3.693,0v3.693A1.847,1.847,0,0,0,425.847,167.386Z" transform="translate(-326.129 -135.994)" fill="#0c2869"/>
  <path id="Path_6312" data-name="Path 6312" d="M393.847,167.386a1.847,1.847,0,0,0,1.847-1.847v-3.693a1.847,1.847,0,1,0-3.693,0v3.693A1.847,1.847,0,0,0,393.847,167.386Z" transform="translate(-301.516 -135.994)" fill="#fd9800"/>
  <path id="Path_6313" data-name="Path 6313" d="M361.847,167.386a1.847,1.847,0,0,0,1.847-1.847v-3.693a1.847,1.847,0,1,0-3.693,0v3.693A1.847,1.847,0,0,0,361.847,167.386Z" transform="translate(-276.902 -135.994)" fill="#0c2869"/>
  <path id="Path_6314" data-name="Path 6314" d="M105.847,232A1.847,1.847,0,0,0,104,233.847v5.54a1.847,1.847,0,1,0,3.693,0v-5.54A1.847,1.847,0,0,0,105.847,232Z" transform="translate(-79.994 -191.375)" fill="#0c2869"/>
  <path id="Path_6315" data-name="Path 6315" d="M73.847,232A1.847,1.847,0,0,0,72,233.847v5.54a1.847,1.847,0,1,0,3.693,0v-5.54A1.847,1.847,0,0,0,73.847,232Z" transform="translate(-55.38 -191.375)" fill="#fd9800"/>
  <path id="Path_6316" data-name="Path 6316" d="M41.847,232A1.847,1.847,0,0,0,40,233.847v5.54a1.847,1.847,0,1,0,3.693,0v-5.54A1.847,1.847,0,0,0,41.847,232Z" transform="translate(-30.767 -191.375)" fill="#0c2869"/>
  <path id="Path_6317" data-name="Path 6317" d="M105.847,288A1.847,1.847,0,0,0,104,289.847v5.54a1.847,1.847,0,0,0,3.693,0v-5.54A1.847,1.847,0,0,0,105.847,288Z" transform="translate(-79.994 -234.448)" fill="#0c2869"/>
  <path id="Path_6318" data-name="Path 6318" d="M73.847,288A1.847,1.847,0,0,0,72,289.847v5.54a1.847,1.847,0,0,0,3.693,0v-5.54A1.847,1.847,0,0,0,73.847,288Z" transform="translate(-55.38 -234.448)" fill="#fd9800"/>
  <path id="Path_6319" data-name="Path 6319" d="M41.847,288A1.847,1.847,0,0,0,40,289.847v5.54a1.847,1.847,0,0,0,3.693,0v-5.54A1.847,1.847,0,0,0,41.847,288Z" transform="translate(-30.767 -234.448)" fill="#0c2869"/>
  <path id="Path_6320" data-name="Path 6320" d="M105.847,344A1.847,1.847,0,0,0,104,345.847v5.54a1.847,1.847,0,0,0,3.693,0v-5.54A1.847,1.847,0,0,0,105.847,344Z" transform="translate(-79.994 -277.522)" fill="#0c2869"/>
  <path id="Path_6321" data-name="Path 6321" d="M73.847,344A1.847,1.847,0,0,0,72,345.847v5.54a1.847,1.847,0,0,0,3.693,0v-5.54A1.847,1.847,0,0,0,73.847,344Z" transform="translate(-55.38 -277.522)" fill="#fd9800"/>
  <path id="Path_6322" data-name="Path 6322" d="M41.847,344A1.847,1.847,0,0,0,40,345.847v5.54a1.847,1.847,0,0,0,3.693,0v-5.54A1.847,1.847,0,0,0,41.847,344Z" transform="translate(-30.767 -277.522)" fill="#0c2869"/>
  <path id="Path_6323" data-name="Path 6323" d="M425.847,241.233a1.847,1.847,0,0,0,1.847-1.847v-5.54a1.847,1.847,0,0,0-3.693,0v5.54A1.847,1.847,0,0,0,425.847,241.233Z" transform="translate(-326.129 -191.375)" fill="#0c2869"/>
  <path id="Path_6324" data-name="Path 6324" d="M393.847,241.233a1.847,1.847,0,0,0,1.847-1.847v-5.54a1.847,1.847,0,0,0-3.693,0v5.54A1.847,1.847,0,0,0,393.847,241.233Z" transform="translate(-301.516 -191.375)" fill="#fd9800"/>
  <path id="Path_6325" data-name="Path 6325" d="M361.847,241.233a1.847,1.847,0,0,0,1.847-1.847v-5.54a1.847,1.847,0,0,0-3.693,0v5.54A1.847,1.847,0,0,0,361.847,241.233Z" transform="translate(-276.902 -191.375)" fill="#0c2869"/>
  <path id="Path_6326" data-name="Path 6326" d="M425.847,297.233a1.847,1.847,0,0,0,1.847-1.847v-5.54a1.847,1.847,0,1,0-3.693,0v5.54A1.847,1.847,0,0,0,425.847,297.233Z" transform="translate(-326.129 -234.448)" fill="#0c2869"/>
  <path id="Path_6327" data-name="Path 6327" d="M393.847,297.233a1.847,1.847,0,0,0,1.847-1.847v-5.54a1.847,1.847,0,1,0-3.693,0v5.54A1.847,1.847,0,0,0,393.847,297.233Z" transform="translate(-301.516 -234.448)" fill="#fd9800"/>
  <path id="Path_6328" data-name="Path 6328" d="M361.847,297.233a1.847,1.847,0,0,0,1.847-1.847v-5.54a1.847,1.847,0,1,0-3.693,0v5.54A1.847,1.847,0,0,0,361.847,297.233Z" transform="translate(-276.902 -234.448)" fill="#0c2869"/>
  <path id="Path_6329" data-name="Path 6329" d="M425.847,353.233a1.847,1.847,0,0,0,1.847-1.847v-5.54a1.847,1.847,0,0,0-3.693,0v5.54A1.847,1.847,0,0,0,425.847,353.233Z" transform="translate(-326.129 -277.522)" fill="#0c2869"/>
  <path id="Path_6330" data-name="Path 6330" d="M393.847,353.233a1.847,1.847,0,0,0,1.847-1.847v-5.54a1.847,1.847,0,1,0-3.693,0v5.54A1.847,1.847,0,0,0,393.847,353.233Z" transform="translate(-301.516 -277.522)" fill="#fd9800"/>
  <path id="Path_6331" data-name="Path 6331" d="M361.847,353.233a1.847,1.847,0,0,0,1.847-1.847v-5.54a1.847,1.847,0,1,0-3.693,0v5.54A1.847,1.847,0,0,0,361.847,353.233Z" transform="translate(-276.902 -277.522)" fill="#0c2869"/>
  <path id="Path_6332" data-name="Path 6332" d="M265.847,241.233a1.847,1.847,0,0,0,1.847-1.847v-5.54a1.847,1.847,0,0,0-3.693,0v5.54A1.847,1.847,0,0,0,265.847,241.233Z" transform="translate(-203.062 -191.375)" fill="#fd9800"/>
  <path id="Path_6333" data-name="Path 6333" d="M233.847,241.233a1.847,1.847,0,0,0,1.847-1.847v-5.54a1.847,1.847,0,0,0-3.693,0v5.54A1.847,1.847,0,0,0,233.847,241.233Z" transform="translate(-178.448 -191.375)" fill="#0c2869"/>
  <path id="Path_6334" data-name="Path 6334" d="M201.847,241.233a1.847,1.847,0,0,0,1.847-1.847v-5.54a1.847,1.847,0,0,0-3.693,0v5.54A1.847,1.847,0,0,0,201.847,241.233Z" transform="translate(-153.835 -191.375)" fill="#fd9800"/>
  <path id="Path_6335" data-name="Path 6335" d="M265.847,297.233a1.847,1.847,0,0,0,1.847-1.847v-5.54a1.847,1.847,0,1,0-3.693,0v5.54A1.847,1.847,0,0,0,265.847,297.233Z" transform="translate(-203.062 -234.448)" fill="#fd9800"/>
  <path id="Path_6336" data-name="Path 6336" d="M233.847,297.233a1.847,1.847,0,0,0,1.847-1.847v-5.54a1.847,1.847,0,1,0-3.693,0v5.54A1.847,1.847,0,0,0,233.847,297.233Z" transform="translate(-178.448 -234.448)" fill="#0c2869"/>
  <path id="Path_6337" data-name="Path 6337" d="M201.847,297.233a1.847,1.847,0,0,0,1.847-1.847v-5.54a1.847,1.847,0,1,0-3.693,0v5.54A1.847,1.847,0,0,0,201.847,297.233Z" transform="translate(-153.835 -234.448)" fill="#fd9800"/>
  <path id="Path_6338" data-name="Path 6338" d="M169.847,241.233a1.847,1.847,0,0,0,1.847-1.847v-5.54a1.847,1.847,0,0,0-3.693,0v5.54A1.847,1.847,0,0,0,169.847,241.233Z" transform="translate(-129.221 -191.375)" fill="#0c2869"/>
  <path id="Path_6339" data-name="Path 6339" d="M169.847,297.233a1.847,1.847,0,0,0,1.847-1.847v-5.54a1.847,1.847,0,1,0-3.693,0v5.54A1.847,1.847,0,0,0,169.847,297.233Z" transform="translate(-129.221 -234.448)" fill="#0c2869"/>
  <path id="Path_6340" data-name="Path 6340" d="M297.847,241.233a1.847,1.847,0,0,0,1.847-1.847v-5.54a1.847,1.847,0,0,0-3.693,0v5.54A1.847,1.847,0,0,0,297.847,241.233Z" transform="translate(-227.675 -191.375)" fill="#0c2869"/>
  <path id="Path_6341" data-name="Path 6341" d="M265.847,185.233a1.847,1.847,0,0,0,1.847-1.847v-5.54a1.847,1.847,0,1,0-3.693,0v5.54A1.847,1.847,0,0,0,265.847,185.233Z" transform="translate(-203.062 -148.301)" fill="#fd9800"/>
  <path id="Path_6342" data-name="Path 6342" d="M233.847,185.233a1.847,1.847,0,0,0,1.847-1.847v-5.54a1.847,1.847,0,1,0-3.693,0v5.54A1.847,1.847,0,0,0,233.847,185.233Z" transform="translate(-178.448 -148.301)" fill="#0c2869"/>
  <path id="Path_6343" data-name="Path 6343" d="M201.847,185.233a1.847,1.847,0,0,0,1.847-1.847v-5.54a1.847,1.847,0,1,0-3.693,0v5.54A1.847,1.847,0,0,0,201.847,185.233Z" transform="translate(-153.835 -148.301)" fill="#fd9800"/>
  <path id="Path_6344" data-name="Path 6344" d="M169.847,185.233a1.847,1.847,0,0,0,1.847-1.847v-5.54a1.847,1.847,0,1,0-3.693,0v5.54A1.847,1.847,0,0,0,169.847,185.233Z" transform="translate(-129.221 -148.301)" fill="#0c2869"/>
  <path id="Path_6345" data-name="Path 6345" d="M297.847,185.233a1.847,1.847,0,0,0,1.847-1.847v-5.54a1.847,1.847,0,1,0-3.693,0v5.54A1.847,1.847,0,0,0,297.847,185.233Z" transform="translate(-227.675 -148.301)" fill="#0c2869"/>
  <path id="Path_6346" data-name="Path 6346" d="M265.847,129.233a1.847,1.847,0,0,0,1.847-1.847v-5.54a1.847,1.847,0,1,0-3.693,0v5.54A1.847,1.847,0,0,0,265.847,129.233Z" transform="translate(-203.062 -105.227)" fill="#fd9800"/>
  <path id="Path_6347" data-name="Path 6347" d="M233.847,129.233a1.847,1.847,0,0,0,1.847-1.847v-5.54a1.847,1.847,0,1,0-3.693,0v5.54A1.847,1.847,0,0,0,233.847,129.233Z" transform="translate(-178.448 -105.227)" fill="#0c2869"/>
  <path id="Path_6348" data-name="Path 6348" d="M201.847,129.233a1.847,1.847,0,0,0,1.847-1.847v-5.54a1.847,1.847,0,1,0-3.693,0v5.54A1.847,1.847,0,0,0,201.847,129.233Z" transform="translate(-153.835 -105.227)" fill="#fd9800"/>
  <path id="Path_6349" data-name="Path 6349" d="M169.847,129.233a1.847,1.847,0,0,0,1.847-1.847v-5.54a1.847,1.847,0,1,0-3.693,0v5.54A1.847,1.847,0,0,0,169.847,129.233Z" transform="translate(-129.221 -105.227)" fill="#0c2869"/>
  <path id="Path_6350" data-name="Path 6350" d="M297.847,129.233a1.847,1.847,0,0,0,1.847-1.847v-5.54a1.847,1.847,0,1,0-3.693,0v5.54A1.847,1.847,0,0,0,297.847,129.233Z" transform="translate(-227.675 -105.227)" fill="#0c2869"/>
  <path id="Path_6351" data-name="Path 6351" d="M297.847,297.233a1.847,1.847,0,0,0,1.847-1.847v-5.54a1.847,1.847,0,1,0-3.693,0v5.54A1.847,1.847,0,0,0,297.847,297.233Z" transform="translate(-227.675 -234.448)" fill="#0c2869"/>
</svg>
