<svg id="integration" xmlns="http://www.w3.org/2000/svg" width="62.809" height="62.809" viewBox="0 0 62.809 62.809">
  <path id="Path_6410" data-name="Path 6410" d="M159.083,154.549l-2.252-2.252a11.524,11.524,0,0,0,.917-2.1h3.306a.92.92,0,0,0,.92-.92v-5.319a.92.92,0,0,0-.92-.92h-3.306a11.525,11.525,0,0,0-.917-2.1l2.252-2.252a.92.92,0,0,0,0-1.3l-3.458-3.458a.92.92,0,0,0-1.3,0l-2.339,2.339a11.564,11.564,0,0,0-1.726-.716v-3.306a.92.92,0,0,0-.92-.92h-4.89a.92.92,0,0,0-.92.92v3.184a11.513,11.513,0,0,0-2.134.839l-2.339-2.339a.92.92,0,0,0-1.3,0l-3.458,3.458a.92.92,0,0,0,0,1.3l2.252,2.252a11.527,11.527,0,0,0-.917,2.1h-3.306a.92.92,0,0,0-.92.92v5.319a.92.92,0,0,0,.92.92h3.306a11.525,11.525,0,0,0,.917,2.1l-2.252,2.252a.92.92,0,0,0,0,1.3l3.458,3.458a.92.92,0,0,0,1.3,0l2.339-2.339a11.522,11.522,0,0,0,2.134.839v3.184a.92.92,0,0,0,.92.92h4.89a.92.92,0,0,0,.92-.92v-3.306a11.566,11.566,0,0,0,1.726-.716l2.339,2.339a.92.92,0,0,0,1.3,0l3.458-3.458A.92.92,0,0,0,159.083,154.549Zm-4.108,2.807-2.178-2.178a.92.92,0,0,0-1.12-.14,9.717,9.717,0,0,1-2.564,1.064.92.92,0,0,0-.693.892v3.078h-3.05v-2.983a.92.92,0,0,0-.728-.9,9.7,9.7,0,0,1-2.937-1.15.92.92,0,0,0-1.121.14l-2.178,2.178L136.25,155.2l2.11-2.11a.92.92,0,0,0,.121-1.151,9.706,9.706,0,0,1-1.265-2.89.92.92,0,0,0-.892-.693h-3.078v-3.479h3.078a.92.92,0,0,0,.892-.693,9.716,9.716,0,0,1,1.265-2.889.92.92,0,0,0-.121-1.151l-2.11-2.11,2.156-2.157,2.178,2.178a.92.92,0,0,0,1.121.14,9.694,9.694,0,0,1,2.937-1.15.92.92,0,0,0,.728-.9v-2.983h3.05v3.078a.92.92,0,0,0,.693.892,9.716,9.716,0,0,1,2.564,1.064.92.92,0,0,0,1.121-.14l2.178-2.178,2.156,2.157-2.11,2.11a.92.92,0,0,0-.121,1.151,9.708,9.708,0,0,1,1.265,2.889.92.92,0,0,0,.892.693h3.078v3.479h-3.078a.92.92,0,0,0-.892.693,9.713,9.713,0,0,1-1.265,2.89.92.92,0,0,0,.121,1.151l2.11,2.11Z" transform="translate(-115.286 -115.212)" fill="#0c2869"/>
  <path id="Path_6411" data-name="Path 6411" d="M222.834,218.2a4.675,4.675,0,0,0-.7.053.92.92,0,1,0,.278,1.819,2.829,2.829,0,0,1,.426-.032,2.794,2.794,0,1,1-2.765,2.368.92.92,0,0,0-1.819-.28,4.638,4.638,0,1,0,4.584-3.929Z" transform="translate(-191.43 -191.428)" fill="#fd9800"/>
  <path id="Path_6412" data-name="Path 6412" d="M424.018,45.457a2.779,2.779,0,1,0,2.779,2.779A2.782,2.782,0,0,0,424.018,45.457Zm0,3.718a.939.939,0,1,1,.939-.939A.94.94,0,0,1,424.018,49.175Z" transform="translate(-369.564 -39.881)" fill="#fd9800"/>
  <path id="Path_6413" data-name="Path 6413" d="M391.571,5.576h-1.564a6.468,6.468,0,0,0-3.092-3.092V.92a.92.92,0,0,0-.92-.92h-3.718a.92.92,0,0,0-.92.92V2.484a6.468,6.468,0,0,0-3.092,3.092H376.7a.92.92,0,0,0-.92.92v3.718a.92.92,0,0,0,.92.92h1.564a6.469,6.469,0,0,0,3.093,3.093v1.564a.92.92,0,0,0,.92.92h3.718a.92.92,0,0,0,.92-.92V14.227a6.468,6.468,0,0,0,3.092-3.092h1.564a.92.92,0,0,0,.92-.92V6.5a.92.92,0,0,0-.92-.92Zm-.92,3.718h-1.259a.92.92,0,0,0-.867.613,4.71,4.71,0,0,1-2.838,2.838.92.92,0,0,0-.613.867V14.87H383.2V13.612a.92.92,0,0,0-.613-.867,4.71,4.71,0,0,1-2.838-2.838.92.92,0,0,0-.867-.613H377.62V7.416h1.258a.92.92,0,0,0,.867-.613,4.71,4.71,0,0,1,2.838-2.838A.92.92,0,0,0,383.2,3.1V1.84h1.878V3.1a.92.92,0,0,0,.613.867A4.71,4.71,0,0,1,388.525,6.8a.92.92,0,0,0,.867.613h1.259Z" transform="translate(-329.682)" fill="#0c2869"/>
  <path id="Path_6414" data-name="Path 6414" d="M426.8,424.018a2.779,2.779,0,1,0-2.779,2.779A2.782,2.782,0,0,0,426.8,424.018Zm-3.718,0a.939.939,0,1,1,.939.939A.94.94,0,0,1,423.079,424.018Z" transform="translate(-369.564 -369.564)" fill="#fd9800"/>
  <path id="Path_6415" data-name="Path 6415" d="M391.571,381.357h-1.564a6.468,6.468,0,0,0-3.092-3.092V376.7a.92.92,0,0,0-.92-.92h-3.718a.92.92,0,0,0-.92.92v1.636a.92.92,0,0,0,1.01,1.493q.107-.044.217-.083a.92.92,0,0,0,.613-.867V377.62h1.878v1.258a.92.92,0,0,0,.613.867,4.71,4.71,0,0,1,2.838,2.838.92.92,0,0,0,.867.613h1.259v1.878h-1.259a.92.92,0,0,0-.867.613,4.71,4.71,0,0,1-2.838,2.838.92.92,0,0,0-.613.867v1.259H383.2v-1.259a.92.92,0,0,0-.612-.867,4.71,4.71,0,0,1-2.838-2.838.92.92,0,0,0-.867-.613H377.62V383.2h1.258a.92.92,0,0,0,.867-.613q.041-.116.088-.229a.92.92,0,0,0-1.506-1H376.7a.92.92,0,0,0-.92.92v3.718a.92.92,0,0,0,.92.92h1.564a6.468,6.468,0,0,0,3.092,3.092v1.564a.92.92,0,0,0,.92.92h3.718a.92.92,0,0,0,.92-.92v-1.564a6.468,6.468,0,0,0,3.092-3.092h1.564a.92.92,0,0,0,.92-.92v-3.718A.92.92,0,0,0,391.571,381.357Z" transform="translate(-329.682 -329.682)" fill="#0c2869"/>
  <path id="Path_6416" data-name="Path 6416" d="M51.015,48.236a2.779,2.779,0,1,0-2.779,2.779A2.782,2.782,0,0,0,51.015,48.236Zm-3.718,0a.939.939,0,1,1,.939.939A.94.94,0,0,1,47.3,48.236Z" transform="translate(-39.881 -39.881)" fill="#fd9800"/>
  <path id="Path_6417" data-name="Path 6417" d="M.92,11.134H2.484a6.468,6.468,0,0,0,3.092,3.092v1.564a.92.92,0,0,0,.92.92h3.718a.92.92,0,0,0,.92-.92V14.227a6.469,6.469,0,0,0,3.093-3.093h1.564a.92.92,0,0,0,.92-.92V6.5a.92.92,0,0,0-.92-.92H14.227a6.468,6.468,0,0,0-3.092-3.092V.92a.92.92,0,0,0-.92-.92H6.5a.92.92,0,0,0-.92.92V2.556a.92.92,0,0,0,1.01,1.493Q6.694,4,6.8,3.966A.92.92,0,0,0,7.416,3.1V1.84H9.294V3.1a.92.92,0,0,0,.613.867A4.711,4.711,0,0,1,12.745,6.8a.92.92,0,0,0,.867.613h1.259V9.294H13.612a.92.92,0,0,0-.867.613,4.711,4.711,0,0,1-2.838,2.838.92.92,0,0,0-.613.867V14.87H7.416V13.612a.92.92,0,0,0-.613-.867A4.711,4.711,0,0,1,3.966,9.907.92.92,0,0,0,3.1,9.294H1.84V7.416H3.1A.92.92,0,0,0,3.966,6.8q.041-.116.088-.228a.92.92,0,0,0-1.505-1H.92A.92.92,0,0,0,0,6.5v3.718a.92.92,0,0,0,.92.92Z" transform="translate(0)" fill="#0c2869"/>
  <path id="Path_6418" data-name="Path 6418" d="M15.791,381.357H14.227a6.469,6.469,0,0,0-3.093-3.093V376.7a.92.92,0,0,0-.92-.92H6.5a.92.92,0,0,0-.92.92v1.564a6.468,6.468,0,0,0-3.092,3.092H.92a.92.92,0,0,0-.92.92v3.718a.92.92,0,0,0,.92.92H2.484a6.468,6.468,0,0,0,3.092,3.092v1.564a.92.92,0,0,0,.92.92h3.718a.92.92,0,0,0,.92-.92v-1.564a6.468,6.468,0,0,0,3.092-3.092h1.564a.92.92,0,0,0,.92-.92v-3.718A.92.92,0,0,0,15.791,381.357Zm-.92,3.718H13.612a.92.92,0,0,0-.867.612,4.71,4.71,0,0,1-2.838,2.838.92.92,0,0,0-.613.867v1.258H7.416v-1.258a.92.92,0,0,0-.613-.867,4.71,4.71,0,0,1-2.838-2.838.92.92,0,0,0-.867-.612H1.84V383.2H3.1a.92.92,0,0,0,.867-.613A4.71,4.71,0,0,1,6.8,379.746a.92.92,0,0,0,.613-.867V377.62H9.294v1.259a.92.92,0,0,0,.613.867,4.71,4.71,0,0,1,2.838,2.838.92.92,0,0,0,.867.613H14.87Z" transform="translate(0 -329.682)" fill="#0c2869"/>
  <path id="Path_6419" data-name="Path 6419" d="M48.236,421.238a2.779,2.779,0,1,0,2.779,2.779A2.782,2.782,0,0,0,48.236,421.238Zm0,3.718a.939.939,0,1,1,.939-.939A.94.94,0,0,1,48.236,424.956Z" transform="translate(-39.881 -369.563)" fill="#fd9800"/>
  <path id="Path_6420" data-name="Path 6420" d="M112.689,111.387a.92.92,0,0,0-1.3,1.3l2.643,2.643h-.753a.92.92,0,1,0,0,1.84h2.974a.93.93,0,0,0,.92-.921v-2.973a.92.92,0,0,0-1.84,0v.753Z" transform="translate(-97.487 -97.487)" fill="#0c2869"/>
  <path id="Path_6421" data-name="Path 6421" d="M351.542,116.343a.93.93,0,0,0,.916.829h2.974a.92.92,0,0,0,0-1.84h-.753l2.643-2.643a.92.92,0,0,0-1.3-1.3l-2.643,2.643v-.753a.92.92,0,1,0-1.84,0v2.973A.884.884,0,0,0,351.542,116.343Z" transform="translate(-308.413 -97.488)" fill="#0c2869"/>
  <path id="Path_6422" data-name="Path 6422" d="M117.166,350.346a.929.929,0,0,0-.916-.829h-2.974a.92.92,0,0,0,0,1.84h.753L111.387,354a.92.92,0,0,0,1.3,1.3l2.643-2.643v.753a.92.92,0,0,0,1.84,0v-2.974c0-.031,0-.061,0-.091Z" transform="translate(-97.486 -306.64)" fill="#0c2869"/>
  <path id="Path_6423" data-name="Path 6423" d="M356.019,355.3a.92.92,0,1,0,1.3-1.3l-2.643-2.643h.753a.92.92,0,0,0,0-1.84h-2.974a.93.93,0,0,0-.92.92v2.974a.92.92,0,1,0,1.84,0v-.753Z" transform="translate(-308.412 -306.641)" fill="#0c2869"/>
</svg>
