<svg xmlns="http://www.w3.org/2000/svg" width="114.828" height="17.123" viewBox="0 0 114.828 17.123">
  <g id="Group_5222" data-name="Group 5222" transform="translate(-667 -793.471)">
    <path id="star" d="M4,17.616a.951.951,0,0,1-.925-1.161l1.149-5.063L.326,7.972A.95.95,0,0,1,.864,6.31l5.158-.468L8.061,1.069a.95.95,0,0,1,1.747,0l2.039,4.773L17,6.31a.951.951,0,0,1,.54,1.662l-3.9,3.418L14.8,16.453a.949.949,0,0,1-1.413,1.026L8.935,14.821,4.487,17.481A.952.952,0,0,1,4,17.616Zm4.935-3.939a.952.952,0,0,1,.487.135l4.2,2.511-1.085-4.779a.95.95,0,0,1,.3-.925l3.681-3.228-4.87-.442a.949.949,0,0,1-.789-.576l-1.922-4.5L7.01,6.372a.946.946,0,0,1-.787.573l-4.871.442,3.681,3.228a.948.948,0,0,1,.3.926L4.25,16.321l4.2-2.51a.952.952,0,0,1,.487-.135ZM5.983,5.934h0Zm5.9,0h0Zm0,0" transform="translate(763.96 792.979)" fill="#95979a"/>
    <path id="star_1_" data-name="star (1)" d="M17.584,6.876a.935.935,0,0,0-.807-.644L11.689,5.77,9.677,1.06a.937.937,0,0,0-1.723,0L5.941,5.769.852,6.232A.938.938,0,0,0,.32,7.871l3.846,3.373-1.134,5a.936.936,0,0,0,1.394,1.012l4.389-2.623L13.2,17.253A.937.937,0,0,0,14.6,16.24l-1.134-5,3.846-3.373a.937.937,0,0,0,.275-1Zm0,0" transform="translate(740.37 792.979)" fill="#ffc107"/>
    <path id="star_1_2" data-name="star (1)" d="M17.584,6.876a.935.935,0,0,0-.807-.644L11.689,5.77,9.677,1.06a.937.937,0,0,0-1.723,0L5.941,5.769.852,6.232A.938.938,0,0,0,.32,7.871l3.846,3.373-1.134,5a.936.936,0,0,0,1.394,1.012l4.389-2.623L13.2,17.253A.937.937,0,0,0,14.6,16.24l-1.134-5,3.846-3.373a.937.937,0,0,0,.275-1Zm0,0" transform="translate(691.787 792.979)" fill="#ffc107"/>
    <path id="star_1_3" data-name="star (1)" d="M17.584,6.876a.935.935,0,0,0-.807-.644L11.689,5.77,9.677,1.06a.937.937,0,0,0-1.723,0L5.941,5.769.852,6.232A.938.938,0,0,0,.32,7.871l3.846,3.373-1.134,5a.936.936,0,0,0,1.394,1.012l4.389-2.623L13.2,17.253A.937.937,0,0,0,14.6,16.24l-1.134-5,3.846-3.373a.937.937,0,0,0,.275-1Zm0,0" transform="translate(715.583 792.979)" fill="#ffc107"/>
    <path id="star_1_4" data-name="star (1)" d="M17.584,6.876a.935.935,0,0,0-.807-.644L11.689,5.77,9.677,1.06a.937.937,0,0,0-1.723,0L5.941,5.769.852,6.232A.938.938,0,0,0,.32,7.871l3.846,3.373-1.134,5a.936.936,0,0,0,1.394,1.012l4.389-2.623L13.2,17.253A.937.937,0,0,0,14.6,16.24l-1.134-5,3.846-3.373a.937.937,0,0,0,.275-1Zm0,0" transform="translate(667 792.979)" fill="#ffc107"/>
  </g>
</svg>
