<svg id="secure-shield" xmlns="http://www.w3.org/2000/svg" width="46.4" height="54.408" viewBox="0 0 46.4 54.408">
  <g id="Group_87710" data-name="Group 87710" transform="translate(0 0)">
    <g id="Group_87709" data-name="Group 87709">
      <path id="Path_6403" data-name="Path 6403" d="M83.239,9.395A90.5,90.5,0,0,1,61.463.159a1.144,1.144,0,0,0-1.164,0A88.026,88.026,0,0,1,38.523,9.395a1.144,1.144,0,0,0-.842,1.1V22.193A33.642,33.642,0,0,0,47.9,46.773c5.017,4.916,10.862,7.635,12.984,7.635s7.966-2.719,12.984-7.635a33.642,33.642,0,0,0,10.216-24.58V10.5A1.144,1.144,0,0,0,83.239,9.395Zm-1.447,12.8a31.4,31.4,0,0,1-9.529,22.945c-4.934,4.835-10.209,6.981-11.382,6.981S54.433,49.972,49.5,45.138A31.4,31.4,0,0,1,39.97,22.193V11.367a90.135,90.135,0,0,0,20.911-8.9,92.988,92.988,0,0,0,20.91,8.9Z" transform="translate(-37.681 0)" fill="#0c2869"/>
      <path id="Path_6404" data-name="Path 6404" d="M88.851,99.669a1.144,1.144,0,0,0-1.484-.645c-2.045.806-4.143,1.547-6.237,2.2a1.145,1.145,0,0,0-.8,1.092v4.42a1.144,1.144,0,1,0,2.289,0v-3.583c1.879-.608,3.755-1.28,5.589-2A1.144,1.144,0,0,0,88.851,99.669Z" transform="translate(-75.795 -88.429)" fill="#0c2869"/>
      <path id="Path_6405" data-name="Path 6405" d="M171.349,88.5a1.145,1.145,0,0,0,.459-.1l.021-.009a1.144,1.144,0,1,0-.924-2.094l-.018.008a1.144,1.144,0,0,0,.463,2.191Z" transform="translate(-156.12 -77.044)" fill="#0c2869"/>
      <path id="Path_6406" data-name="Path 6406" d="M311.937,345.715a1.145,1.145,0,0,0-1.584.332,27.849,27.849,0,0,1-3.289,4.108,29.229,29.229,0,0,1-3.283,2.921,1.145,1.145,0,1,0,1.388,1.82,31.557,31.557,0,0,0,3.54-3.15,30.114,30.114,0,0,0,3.56-4.447A1.144,1.144,0,0,0,311.937,345.715Z" transform="translate(-275.101 -308.81)" fill="#0c2869"/>
      <path id="Path_6407" data-name="Path 6407" d="M277.2,432.123l-.066.039a1.144,1.144,0,1,0,1.147,1.981l.076-.045a1.144,1.144,0,1,0-1.157-1.975Z" transform="translate(-251.178 -386.063)" fill="#0c2869"/>
      <path id="Path_6408" data-name="Path 6408" d="M129.173,163.039a3.722,3.722,0,0,0-5.263,5.263l6.758,6.758a3.723,3.723,0,0,0,5.263,0l14.108-14.108a3.722,3.722,0,0,0-5.264-5.263L133.3,167.165Zm17.221-5.731a1.433,1.433,0,1,1,2.026,2.026l-14.108,14.108a1.434,1.434,0,0,1-2.026,0l-6.758-6.758a1.433,1.433,0,0,1,2.026-2.026l4.936,4.936a1.144,1.144,0,0,0,1.618,0Z" transform="translate(-113.774 -138.17)" fill="#fd9800"/>
    </g>
  </g>
</svg>
