<svg id="time" xmlns="http://www.w3.org/2000/svg" width="51.76" height="51.76" viewBox="0 0 51.76 51.76">
  <g id="Group_87708" data-name="Group 87708" transform="translate(0)">
    <path id="Path_6385" data-name="Path 6385" d="M44.18,7.58a25.88,25.88,0,0,0-36.6,36.6,25.88,25.88,0,0,0,36.6-36.6ZM42.035,42.035A22.847,22.847,0,1,1,9.725,9.725,22.847,22.847,0,1,1,42.035,42.035Z" transform="translate(0)" fill="#0c2869"/>
    <path id="Path_6386" data-name="Path 6386" d="M81.956,62.382A19.508,19.508,0,0,0,68.25,68a1.4,1.4,0,0,0-.251.251,19.563,19.563,0,1,0,13.958-5.867ZM94.67,92.525,93.4,91.251A1.516,1.516,0,0,0,91.252,93.4l1.273,1.273a16.467,16.467,0,0,1-9.053,3.757V96.618a1.516,1.516,0,0,0-3.033,0v1.808a16.467,16.467,0,0,1-9.053-3.757L72.661,93.4a1.516,1.516,0,1,0-2.145-2.145l-1.273,1.273a16.469,16.469,0,0,1-3.757-9.053h1.808a1.516,1.516,0,1,0,0-3.033H65.486a16.467,16.467,0,0,1,3.757-9.053l1.273,1.273a1.516,1.516,0,0,0,2.144-2.145l-1.273-1.273a16.468,16.468,0,0,1,9.053-3.757v1.808a1.516,1.516,0,0,0,3.033,0V65.485a16.467,16.467,0,0,1,9.053,3.757l-1.273,1.273A1.516,1.516,0,1,0,93.4,72.66l1.273-1.273a16.467,16.467,0,0,1,3.757,9.053H96.619a1.516,1.516,0,0,0,0,3.033h1.808A16.466,16.466,0,0,1,94.67,92.525Z" transform="translate(-56.076 -56.076)" fill="#0c2869"/>
  </g>
  <path id="Path_6387" data-name="Path 6387" d="M214.005,167.648a12.59,12.59,0,0,1-3.177-1.471.9.9,0,0,1-.174-.835,1.282,1.282,0,0,1,.836-1.013,2.411,2.411,0,0,1,2.184.315,1.516,1.516,0,0,0,1.816-2.429,5.424,5.424,0,0,0-1.872-.874v-.372a1.516,1.516,0,1,0-3.033,0v.466a4.284,4.284,0,0,0-2.912,3.345,3.843,3.843,0,0,0,1.283,3.783,14.68,14.68,0,0,0,4.038,1.944,1.481,1.481,0,0,1,1.09,1.756,2.008,2.008,0,0,1-1.992,1.694,3.479,3.479,0,0,1-2.524-.658,1.516,1.516,0,1,0-1.66,2.538,6.08,6.08,0,0,0,2.677,1.08v.416a1.516,1.516,0,1,0,3.033,0v-.574a5.117,5.117,0,0,0,3.457-3.992A4.521,4.521,0,0,0,214.005,167.648Z" transform="translate(-186.273 -143.333)" fill="#fd9800"/>
</svg>
