<svg id="university" xmlns="http://www.w3.org/2000/svg" width="97.23" height="97.23" viewBox="0 0 97.23 97.23">
  <g id="Group_87682" data-name="Group 87682">
    <g id="Group_87681" data-name="Group 87681">
      <path id="Path_6352" data-name="Path 6352" d="M187.733,267.343a1.621,1.621,0,0,0,1.62,1.62h6.482a1.621,1.621,0,0,0,1.62-1.62V257.62a1.621,1.621,0,0,0-1.62-1.62h-6.482a1.621,1.621,0,0,0-1.62,1.62v9.723Zm3.241-8.1h3.241v6.482h-3.241Z" transform="translate(-152.082 -207.385)" fill="#fd9800"/>
      <path id="Path_6353" data-name="Path 6353" d="M189.354,166.565h6.482a1.621,1.621,0,0,0,1.62-1.62v-9.723a1.621,1.621,0,0,0-1.62-1.62h-6.482a1.621,1.621,0,0,0-1.62,1.62v9.723A1.621,1.621,0,0,0,189.354,166.565Zm1.62-9.723h3.241v6.482h-3.241Z" transform="translate(-152.083 -124.432)" fill="#fd9800"/>
      <path id="Path_6354" data-name="Path 6354" d="M121.921,30.558l23.473-14.084,23.473,14.084a1.62,1.62,0,0,0,1.669-2.778L147.015,13.667V3.241h8.1V6.482h-4.862a1.62,1.62,0,0,0,0,3.241h6.482a1.621,1.621,0,0,0,1.62-1.62V1.62A1.621,1.621,0,0,0,156.738,0H145.394a1.621,1.621,0,0,0-1.62,1.62V13.667L120.252,27.78a1.62,1.62,0,0,0,1.669,2.778Z" transform="translate(-96.779 0)" fill="#0c2869"/>
      <path id="Path_6355" data-name="Path 6355" d="M59.3,268.965a1.621,1.621,0,0,0,1.62-1.62v-9.723A1.621,1.621,0,0,0,59.3,256H52.82a1.621,1.621,0,0,0-1.62,1.62v3.241a1.62,1.62,0,1,0,3.241,0v-1.62h3.241v8.1A1.621,1.621,0,0,0,59.3,268.965Z" transform="translate(-41.477 -207.386)" fill="#fd9800"/>
      <path id="Path_6356" data-name="Path 6356" d="M139.775,227.815V180.82a1.62,1.62,0,0,0-3.241,0v46.995a1.62,1.62,0,0,0,3.241,0Z" transform="translate(-110.606 -145.169)" fill="#0c2869"/>
      <path id="Path_6357" data-name="Path 6357" d="M104.02,381.089h55.1a1.62,1.62,0,1,0,0-3.241H144.533v-16.2h1.62a1.62,1.62,0,0,0,0-3.241H116.985a1.62,1.62,0,0,0,0,3.241h1.62v16.2H104.02a1.621,1.621,0,0,0,0,3.241Zm29.169-9.723a1.62,1.62,0,0,0,0-3.241v-6.482h8.1v16.2h-8.1Zm-11.343-9.723h8.1v6.482a1.62,1.62,0,1,0,0,3.241v6.482h-8.1Z" transform="translate(-82.954 -290.341)" fill="#0c2869"/>
      <path id="Path_6358" data-name="Path 6358" d="M417.7,366.933h-6.482a1.621,1.621,0,0,0-1.62,1.62v9.723a1.621,1.621,0,0,0,1.62,1.62H417.7a1.621,1.621,0,0,0,1.62-1.62v-9.723A1.621,1.621,0,0,0,417.7,366.933Zm-1.621,9.723h-3.241v-6.482h3.241Z" transform="translate(-331.817 -297.252)" fill="#0c2869"/>
      <path id="Path_6359" data-name="Path 6359" d="M417.7,264.533h-6.482a1.621,1.621,0,0,0-1.62,1.62v9.723a1.621,1.621,0,0,0,1.62,1.62H417.7a1.621,1.621,0,0,0,1.62-1.62v-9.723A1.621,1.621,0,0,0,417.7,264.533Zm-1.621,9.723h-3.241v-6.482h3.241Z" transform="translate(-331.817 -214.298)" fill="#0c2869"/>
      <path id="Path_6360" data-name="Path 6360" d="M137.949,494.933H69.887a1.621,1.621,0,0,0,0,3.241h68.061a1.621,1.621,0,0,0,0-3.241Z" transform="translate(-55.303 -400.944)" fill="#0c2869"/>
      <path id="Path_6361" data-name="Path 6361" d="M413.6,187.733a1.621,1.621,0,0,0-1.62,1.62v1.62H394.155a1.62,1.62,0,1,0,0,3.241H411.98v53.477a1.62,1.62,0,1,0,3.241,0V189.353A1.621,1.621,0,0,0,413.6,187.733Z" transform="translate(-317.991 -152.082)" fill="#0c2869"/>
      <path id="Path_6362" data-name="Path 6362" d="M273.067,267.343a1.621,1.621,0,0,0,1.62,1.62h6.482a1.621,1.621,0,0,0,1.62-1.62V257.62a1.621,1.621,0,0,0-1.62-1.62h-6.482a1.621,1.621,0,0,0-1.62,1.62Zm3.241-8.1h3.241v6.482h-3.241Z" transform="translate(-221.211 -207.385)" fill="#fd9800"/>
      <path id="Path_6363" data-name="Path 6363" d="M16.2,328.266c0-.211-.092-21.066-8.1-21.066S0,328.056,0,328.266a8.116,8.116,0,0,0,6.482,7.939v8.266a1.62,1.62,0,1,0,3.241,0v-8.266A8.116,8.116,0,0,0,16.2,328.266Zm-8.1,4.862a4.867,4.867,0,0,1-4.862-4.862c0-8.073,2.168-17.826,4.862-17.826s4.862,9.752,4.862,17.826A4.867,4.867,0,0,1,8.1,333.128Z" transform="translate(0 -248.862)" fill="#0c2869"/>
      <path id="Path_6364" data-name="Path 6364" d="M361.642,220.9V172.287a1.62,1.62,0,1,0-3.241,0V220.9a1.62,1.62,0,1,0,3.241,0Z" transform="translate(-290.34 -138.257)" fill="#0c2869"/>
      <path id="Path_6365" data-name="Path 6365" d="M274.687,166.565h6.482a1.621,1.621,0,0,0,1.62-1.62v-9.723a1.621,1.621,0,0,0-1.62-1.62h-6.482a1.621,1.621,0,0,0-1.62,1.62v9.723A1.621,1.621,0,0,0,274.687,166.565Zm1.62-9.723h3.241v6.482h-3.241Z" transform="translate(-221.211 -124.432)" fill="#fd9800"/>
      <path id="Path_6366" data-name="Path 6366" d="M1.62,208.8a1.621,1.621,0,0,0,1.62-1.62V194.217H21.066a1.62,1.62,0,0,0,0-3.241H3.241v-1.62a1.621,1.621,0,0,0-3.241,0v17.826A1.621,1.621,0,0,0,1.62,208.8Z" transform="translate(0 -152.084)" fill="#0c2869"/>
    </g>
  </g>
</svg>
