<svg id="user" xmlns="http://www.w3.org/2000/svg" width="60.511" height="60.511" viewBox="0 0 60.511 60.511">
  <path id="Path_6388" data-name="Path 6388" d="M45.278,32.035h4.861a5.339,5.339,0,1,0,0-3.56H45.278a15.056,15.056,0,0,0-3.146-7.58L46.724,16.3a7.856,7.856,0,1,0-2.517-2.517l-4.592,4.592a15.057,15.057,0,0,0-7.58-3.146V10.372a5.339,5.339,0,1,0-3.56,0v4.861a15.056,15.056,0,0,0-7.58,3.146L16.3,13.787A7.856,7.856,0,1,0,13.787,16.3L18.379,20.9a15.057,15.057,0,0,0-3.146,7.58H10.372a5.339,5.339,0,1,0,0,3.56h4.861a15.056,15.056,0,0,0,3.146,7.58l-4.592,4.592A7.856,7.856,0,1,0,16.3,46.724L20.9,42.132a15.057,15.057,0,0,0,7.58,3.146v4.861a5.339,5.339,0,1,0,3.56,0V45.278a15.056,15.056,0,0,0,7.58-3.146l4.592,4.592a7.856,7.856,0,1,0,2.517-2.517l-4.592-4.592A15.056,15.056,0,0,0,45.278,32.035Zm-17.692-1.78a2.67,2.67,0,1,1,2.67,2.67A2.673,2.673,0,0,1,27.586,30.256Zm2.67,6.229a5.347,5.347,0,0,1,5.194,4.106,11.546,11.546,0,0,1-10.388,0,5.348,5.348,0,0,1,5.194-4.106Zm24.917-8.009a1.78,1.78,0,1,1-1.78,1.78A1.782,1.782,0,0,1,55.172,28.476ZM47.837,6.6a4.3,4.3,0,1,1,0,6.076,4.284,4.284,0,0,1,0-6.076ZM30.256,3.559a1.78,1.78,0,1,1-1.78,1.78A1.782,1.782,0,0,1,30.256,3.559Zm0,15.128A11.562,11.562,0,0,1,38.467,38.4a8.952,8.952,0,0,0-3.475-4.1,6.229,6.229,0,1,0-9.471,0,8.952,8.952,0,0,0-3.475,4.1,11.562,11.562,0,0,1,8.211-19.709ZM6.6,12.674a4.3,4.3,0,1,1,6.076,0,4.3,4.3,0,0,1-6.076,0ZM5.339,32.035a1.78,1.78,0,1,1,1.78-1.78A1.782,1.782,0,0,1,5.339,32.035Zm7.335,21.878a4.3,4.3,0,1,1,0-6.076A4.3,4.3,0,0,1,12.674,53.914Zm17.582,3.038a1.78,1.78,0,1,1,1.78-1.78A1.782,1.782,0,0,1,30.256,56.952Zm23.658-9.115a4.3,4.3,0,1,1-6.076,0A4.3,4.3,0,0,1,53.914,47.837Z" fill="#0c2869"/>
</svg>
