<svg id="villa" xmlns="http://www.w3.org/2000/svg" width="91.456" height="91.456" viewBox="0 0 91.456 91.456">
  <path id="Path_6367" data-name="Path 6367" d="M87.786,152a1.786,1.786,0,1,0,1.786,1.786A1.788,1.788,0,0,0,87.786,152Z" transform="translate(-70.638 -124.849)" fill="#fd9800"/>
  <path id="Path_6368" data-name="Path 6368" d="M407.786,155.572A1.786,1.786,0,1,0,406,153.786,1.789,1.789,0,0,0,407.786,155.572Z" transform="translate(-333.478 -124.849)" fill="#fd9800"/>
  <path id="Path_6369" data-name="Path 6369" d="M97.786,398.076h16.076a1.786,1.786,0,0,0,1.786-1.786v-4.466a9.824,9.824,0,1,0-19.649,0v4.466A1.786,1.786,0,0,0,97.786,398.076Zm9.824-12.242a6.262,6.262,0,0,1,4.466,5.991V394.5h-4.466Zm-8.038,5.991a6.262,6.262,0,0,1,4.466-5.991v8.67H99.573Z" transform="translate(-78.852 -313.765)" fill="#fd9800"/>
  <path id="Path_6370" data-name="Path 6370" d="M97.786,248.076h16.076a1.786,1.786,0,0,0,1.786-1.786v-4.466a9.824,9.824,0,0,0-19.649,0v4.466A1.786,1.786,0,0,0,97.786,248.076Zm9.824-12.242a6.262,6.262,0,0,1,4.466,5.991V244.5h-4.466Zm-8.038,5.991a6.262,6.262,0,0,1,4.466-5.991v8.67H99.573Z" transform="translate(-78.852 -190.559)" fill="#fd9800"/>
  <path id="Path_6371" data-name="Path 6371" d="M307.786,248.076h16.076a1.786,1.786,0,0,0,1.786-1.786v-4.466a9.824,9.824,0,0,0-19.649,0v4.466A1.786,1.786,0,0,0,307.786,248.076Zm9.824-12.242a6.262,6.262,0,0,1,4.466,5.991V244.5h-4.466Zm-8.038,5.991a6.262,6.262,0,0,1,4.466-5.991v8.67h-4.466Z" transform="translate(-251.34 -190.559)" fill="#fd9800"/>
  <path id="Path_6372" data-name="Path 6372" d="M90.366,18.737,46.424.141a1.785,1.785,0,0,0-1.392,0L1.09,18.737A1.786,1.786,0,0,0,0,20.382v7.662a1.786,1.786,0,0,0,2.47,1.65l3.96-1.642V89.67a1.786,1.786,0,0,0,1.786,1.786H83.24a1.786,1.786,0,0,0,1.786-1.786V28.052l3.96,1.642a1.786,1.786,0,0,0,2.47-1.65V20.382A1.786,1.786,0,0,0,90.366,18.737ZM43.942,82.525v5.359H10V64.662H43.942Zm0-21.435H10V37.868H43.942ZM60.018,34.3H31.438V28.937A5.365,5.365,0,0,1,36.8,23.578H54.66a5.365,5.365,0,0,1,5.359,5.359ZM61.8,87.884H47.514V84.311H61.8Zm10.718,0H65.377V71.807h7.145Zm8.931,0H76.095V84.311h5.359Zm0-7.145H76.095V70.021a1.786,1.786,0,0,0-1.786-1.786H63.591A1.786,1.786,0,0,0,61.8,70.021V80.739H47.514V64.662H81.453Zm0-19.649H47.514V37.868H81.453Zm0-26.794H63.591V30.723h3.573a1.786,1.786,0,1,0,0-3.573H63.411a8.946,8.946,0,0,0-8.752-7.145H36.8a8.946,8.946,0,0,0-8.752,7.145H24.293a1.786,1.786,0,1,0,0,3.573h3.573V34.3H10V26.571L45.728,11.758,81.453,26.571Zm6.431-8.926L46.412,8.174a1.785,1.785,0,0,0-1.368,0L3.573,25.37v-3.8L45.728,3.726l42.156,17.84Z" transform="translate(0 0)" fill="#0c2869"/>
</svg>
