<svg id="warehouse" xmlns="http://www.w3.org/2000/svg" width="91.228" height="91.227" viewBox="0 0 91.228 91.227">
  <g id="Group_87684" data-name="Group 87684" transform="translate(0 0)">
    <g id="Group_87683" data-name="Group 87683">
      <path id="Path_6373" data-name="Path 6373" d="M90.477,26.059,46.383.211a1.52,1.52,0,0,0-1.5-.02L.786,24.519A1.517,1.517,0,0,0,0,25.849v63.86a1.52,1.52,0,0,0,1.52,1.52h7.6a1.52,1.52,0,0,0,1.52-1.52V36.492H80.585V89.709a1.519,1.519,0,0,0,1.52,1.52h7.6a1.519,1.519,0,0,0,1.52-1.52V27.37A1.517,1.517,0,0,0,90.477,26.059Zm-2.29,62.129H83.626V34.972a1.52,1.52,0,0,0-1.52-1.52H9.123a1.521,1.521,0,0,0-1.52,1.52V88.188H3.041V26.746L45.591,3.27l42.6,24.971V88.188Z" transform="translate(0 -0.002)" fill="#0c2869"/>
    </g>
  </g>
  <g id="Group_87686" data-name="Group 87686" transform="translate(56.257 69.941)">
    <g id="Group_87685" data-name="Group 87685">
      <path id="Path_6374" data-name="Path 6374" d="M335.5,392.531H317.254a1.519,1.519,0,0,0-1.52,1.52V412.3a1.519,1.519,0,0,0,1.52,1.52H335.5a1.519,1.519,0,0,0,1.52-1.52V394.051A1.519,1.519,0,0,0,335.5,392.531Zm-1.521,18.246h-15.2v-15.2h15.2Z" transform="translate(-315.734 -392.531)" fill="#0c2869"/>
    </g>
  </g>
  <g id="Group_87688" data-name="Group 87688" transform="translate(62.339 71.461)">
    <g id="Group_87687" data-name="Group 87687">
      <path id="Path_6375" data-name="Path 6375" d="M355.948,401.064v4.561h-3.041v-4.561h-3.041v6.082a1.519,1.519,0,0,0,1.52,1.52h6.082a1.519,1.519,0,0,0,1.52-1.52v-6.082Z" transform="translate(-349.866 -401.064)" fill="#fd9800"/>
    </g>
  </g>
  <g id="Group_87690" data-name="Group 87690" transform="translate(38.012 69.941)">
    <g id="Group_87689" data-name="Group 87689">
      <path id="Path_6376" data-name="Path 6376" d="M233.1,392.531H214.854a1.52,1.52,0,0,0-1.52,1.52V412.3a1.52,1.52,0,0,0,1.52,1.52H233.1a1.519,1.519,0,0,0,1.52-1.52V394.051A1.519,1.519,0,0,0,233.1,392.531Zm-1.521,18.246h-15.2v-15.2h15.2Z" transform="translate(-213.334 -392.531)" fill="#0c2869"/>
    </g>
  </g>
  <g id="Group_87692" data-name="Group 87692" transform="translate(44.093 71.461)">
    <g id="Group_87691" data-name="Group 87691">
      <path id="Path_6377" data-name="Path 6377" d="M253.548,401.064v4.561h-3.041v-4.561h-3.041v6.082a1.52,1.52,0,0,0,1.52,1.52h6.082a1.519,1.519,0,0,0,1.52-1.52v-6.082Z" transform="translate(-247.466 -401.064)" fill="#fd9800"/>
    </g>
  </g>
  <g id="Group_87694" data-name="Group 87694" transform="translate(56.257 51.695)">
    <g id="Group_87693" data-name="Group 87693">
      <path id="Path_6378" data-name="Path 6378" d="M335.5,290.131H317.254a1.519,1.519,0,0,0-1.52,1.52V309.9a1.519,1.519,0,0,0,1.52,1.52H335.5a1.519,1.519,0,0,0,1.52-1.52V291.651A1.519,1.519,0,0,0,335.5,290.131Zm-1.521,18.246h-15.2v-15.2h15.2Z" transform="translate(-315.734 -290.131)" fill="#0c2869"/>
    </g>
  </g>
  <g id="Group_87696" data-name="Group 87696" transform="translate(62.339 53.216)">
    <g id="Group_87695" data-name="Group 87695">
      <path id="Path_6379" data-name="Path 6379" d="M355.948,298.664v4.561h-3.041v-4.561h-3.041v6.082a1.519,1.519,0,0,0,1.52,1.52h6.082a1.519,1.519,0,0,0,1.52-1.52v-6.082Z" transform="translate(-349.866 -298.664)" fill="#fd9800"/>
    </g>
  </g>
  <g id="Group_87698" data-name="Group 87698" transform="translate(9.123 45.613)">
    <g id="Group_87697" data-name="Group 87697">
      <rect id="Rectangle_2266" data-name="Rectangle 2266" width="72.982" height="3.041" fill="#0c2869"/>
    </g>
  </g>
  <g id="Group_87700" data-name="Group 87700" transform="translate(9.123 39.531)">
    <g id="Group_87699" data-name="Group 87699">
      <rect id="Rectangle_2267" data-name="Rectangle 2267" width="72.982" height="3.041" fill="#0c2869"/>
    </g>
  </g>
  <g id="Group_87702" data-name="Group 87702" transform="translate(36.491 21.286)">
    <g id="Group_87701" data-name="Group 87701">
      <path id="Path_6380" data-name="Path 6380" d="M221.526,119.464h-15.2a1.521,1.521,0,0,0-1.52,1.52v6.082a1.521,1.521,0,0,0,1.52,1.52h15.2a1.52,1.52,0,0,0,1.52-1.52v-6.082A1.52,1.52,0,0,0,221.526,119.464Zm-1.521,6.082H207.842V122.5h12.164Z" transform="translate(-204.801 -119.464)" fill="#fd9800"/>
    </g>
  </g>
</svg>
